<svg xmlns:xlink="http://www.w3.org/1999/xlink" xmlns="http://www.w3.org/2000/svg" width="177" height="24" viewBox="0 0 177 24" fill="none">
<g clip-path="url(#clip0_9354_151739)">
<path d="M91.0508 16.991C91.0508 19.496 91.6808 21.281 92.9558 22.361C94.2158 23.441 95.8508 23.996 97.8608 23.996C99.8708 23.996 101.506 23.456 102.766 22.361C104.026 21.281 104.671 19.481 104.671 16.991V6.73096H102.406V16.991C102.406 18.536 102.031 19.751 101.281 20.621C100.531 21.491 99.3908 21.926 97.8608 21.926C96.3308 21.926 95.1908 21.491 94.4408 20.621C93.6908 19.751 93.3158 18.536 93.3158 16.991V6.73096H91.0508V16.991Z" fill="#122315"/>
<path d="M112.23 23.7604H123.87V21.7954H114.495V16.1104H121.8V14.1454H114.495V8.76041H123.675V6.79541H112.23V23.7604Z" fill="#122315"/>
<path d="M69.7188 23.6379H71.9988L71.8938 10.6179H71.9988L81.3588 23.6379H83.5337V6.67285H81.2688L81.3588 19.7979H81.2688L71.8938 6.67285H69.7188V23.6379Z" fill="#122315"/>
<path d="M137.969 15.2245C137.969 17.7895 138.719 19.8895 140.234 21.5395C141.749 23.1895 143.684 23.9995 146.054 23.9995C148.034 23.9995 149.654 23.4745 150.929 22.4395C152.204 21.3895 153.014 20.0395 153.359 18.3895H151.019C150.704 19.5295 150.149 20.3995 149.354 21.0145C148.559 21.6295 147.464 21.9445 146.069 21.9445C144.389 21.9445 143.024 21.2995 141.944 20.0245C140.879 18.7345 140.339 17.1445 140.339 15.2395C140.339 13.3345 140.879 11.6695 141.959 10.4245C143.039 9.16449 144.434 8.53449 146.159 8.53449C147.464 8.53449 148.514 8.84949 149.324 9.46449C150.134 10.0795 150.704 10.9495 151.019 12.0895H153.359C153.014 10.4245 152.219 9.07449 150.974 8.03949C149.729 6.98949 148.124 6.47949 146.159 6.47949C143.744 6.47949 141.779 7.31949 140.249 8.98449C138.734 10.6495 137.969 12.7495 137.969 15.2545" fill="#122315"/>
<path d="M161.671 8.77402C161.671 6.86902 162.211 5.27902 163.306 3.98902C164.401 2.69902 165.826 2.06902 167.596 2.06902C169.366 2.06902 170.806 2.71402 171.886 3.98902C172.966 5.26402 173.521 6.86902 173.521 8.77402C173.521 10.679 172.981 12.269 171.886 13.559C170.791 14.849 169.366 15.479 167.596 15.479C165.826 15.479 164.386 14.834 163.306 13.559C162.226 12.284 161.671 10.679 161.671 8.77402ZM159.301 8.77402C159.301 11.294 160.066 13.379 161.596 15.044C163.126 16.709 165.121 17.549 167.596 17.549C170.071 17.549 172.006 16.709 173.551 15.044C175.111 13.379 175.876 11.279 175.876 8.77402C175.876 6.26902 175.096 4.16902 173.551 2.50402C171.991 0.839023 170.011 -0.000976562 167.596 -0.000976562C165.181 -0.000976562 163.126 0.839023 161.596 2.50402C160.066 4.16902 159.301 6.26902 159.301 8.77402Z" fill="#122315"/>
<path d="M174.631 22.0361H160.516V24.0011H174.631V22.0361Z" fill="#122315"/>
<path d="M1.125 6.67285H15.24V8.59285H9.315V23.6378H7.05V8.59285H1.125V6.67285Z" fill="#122315"/>
<path d="M22.6055 6.73096H24.8705V14.126H33.9455V6.73096H36.2105V23.6959H33.9455V16.1059H24.8705V23.6959H22.6055V6.73096Z" fill="#122315"/>
<path d="M43.7852 23.7604H55.4252V21.7954H46.0502V16.1104H53.3552V14.1454H46.0502V8.76041H55.2302V6.79541H43.7852V23.7604Z" fill="#122315"/>
</g>
<defs>
<clipPath id="clip0_9354_151739">
<rect width="177" height="24" fill="white"/>
</clipPath>
</defs>
</svg>