<svg xmlns:xlink="http://www.w3.org/1999/xlink" xmlns="http://www.w3.org/2000/svg" width="137" height="24" viewBox="0 0 137 24" fill="none">
<g clip-path="url(#clip0_9002_102274)">
<path d="M67.9897 4.74707C62.3193 4.74707 58.7852 8.72937 58.7852 14.3205C58.7852 20.2019 62.5303 24.0002 67.9897 24.0002C73.4491 24.0002 77.2474 19.9647 77.2474 14.3205C77.2474 8.67623 73.4753 4.74707 67.9897 4.74707ZM67.9897 21.1253C64.3239 21.1253 62.0027 18.4876 62.0027 14.3205C62.0027 10.1533 64.3239 7.59498 67.9897 7.59498C71.6554 7.59498 74.029 10.2057 74.029 14.3205C74.029 18.4352 71.6817 21.1253 67.9897 21.1253Z" fill="#122315"/>
<path d="M106.048 13.2921L103.253 12.4219C101.459 11.8419 99.8506 11.4461 99.8506 9.8373C99.8506 8.41334 101.169 7.56928 103.2 7.56928C105.969 7.56928 107.498 8.96706 107.63 11.051H110.848C110.61 7.14803 107.762 4.74756 103.305 4.74756C99.2175 4.74756 96.7116 6.9632 96.7116 9.99594C96.7116 13.6094 100.087 14.5589 102.25 15.2182L105.256 16.1145C107.05 16.6683 108.184 17.249 108.184 18.6991C108.184 20.2555 106.917 21.1781 104.518 21.1781C101.564 21.1781 99.7174 19.912 99.4277 17.9074H96.1836C96.4211 21.5732 99.6652 23.9999 104.518 23.9999C108.737 23.9999 111.401 21.8897 111.401 18.5404C111.401 15.1912 108.659 14.11 106.048 13.2921Z" fill="#122315"/>
<path d="M9.78364 19.5408C9.7675 19.5824 9.72588 19.6124 9.67812 19.6124C9.63037 19.6124 9.58957 19.5816 9.57343 19.5393L3.90298 5.14258H0V23.604H3.1652V11.215C3.16751 11.1549 3.2168 11.1064 3.27764 11.1064C3.32539 11.1064 3.36698 11.1364 3.38238 11.1788L8.2819 23.604H11.0513L15.9508 11.1765C15.967 11.1349 16.0078 11.1049 16.0555 11.1049C16.1172 11.1049 16.1671 11.1549 16.168 11.2165V23.604H19.3332V5.14258H15.4294L9.78364 19.5408Z" fill="#122315"/>
<path d="M28.4839 5.14258L20.9414 23.6047H24.2121L26.085 19.0417H34.0766L35.9495 23.6047H39.2202L31.6492 5.14258H28.4839ZM27.2179 16.2462L29.9896 9.48145C30.0073 9.44294 30.0473 9.41522 30.0928 9.41522C30.1382 9.41522 30.1798 9.44449 30.1967 9.4853L32.9414 16.2455H27.2186L27.2179 16.2462Z" fill="#122315"/>
<path d="M53.4081 18.6659C53.4081 18.7276 53.3557 18.78 53.2941 18.78C53.2548 18.78 53.2217 18.7591 53.2017 18.7283L44.2567 5.14258H40.8281V23.604H43.9933V10.086C43.9933 10.0244 44.0442 9.96817 44.1058 9.96817C44.1443 9.96817 44.1789 9.98819 44.199 10.0175L53.1447 23.604H56.5733V5.14258H53.4081V18.6659Z" fill="#122315"/>
<path d="M90.7259 15.2384C90.6803 15.2238 90.6448 15.1791 90.6448 15.1283C90.6448 15.0775 90.677 15.0389 90.7209 15.0235C92.9512 14.2989 94.3912 12.509 94.3912 10.3643C94.3912 7.2784 91.9639 5.14209 88.4574 5.14209H79.4375V23.6042H82.6027V16.6415H88.0097C88.8539 16.6415 89.4605 17.0374 89.7237 17.776L91.8605 23.6042H95.2362L92.8627 17.2484C92.4646 16.2419 91.7347 15.5479 90.7275 15.2384H90.7259ZM88.2985 13.846H82.6019V7.99077H88.2985C90.0919 7.99077 91.253 9.15135 91.253 10.8394C91.253 12.5276 90.2508 13.846 88.2985 13.846Z" fill="#122315"/>
<path d="M133.876 14.3735C134.763 14.3735 135.481 13.655 135.481 12.7693C135.481 11.8837 134.763 11.1652 133.876 11.1652C132.991 11.1652 132.272 10.4467 132.272 9.56103C132.272 8.67539 131.554 7.95687 130.669 7.95687C129.783 7.95687 129.064 7.23834 129.064 6.3527C129.064 5.46706 128.346 4.74854 127.46 4.74854C126.574 4.74854 125.856 5.46706 125.856 6.3527C125.856 7.23834 125.137 7.95687 124.251 7.95687C123.366 7.95687 122.648 7.23834 122.648 6.3527C122.648 5.46706 121.929 4.74854 121.043 4.74854C120.157 4.74854 119.439 5.46706 119.439 6.3527C119.439 7.23834 118.721 7.95687 117.835 7.95687C116.95 7.95687 116.23 8.67539 116.23 9.56103C116.23 10.4467 116.95 11.1652 117.835 11.1652C118.721 11.1652 119.439 11.8837 119.439 12.7693C119.439 13.655 118.721 14.3735 117.835 14.3735C116.95 14.3735 116.23 15.092 116.23 15.9777C116.23 16.8633 116.95 17.5818 117.835 17.5818C118.721 17.5818 119.439 18.3003 119.439 19.186C119.439 20.0716 118.721 20.7902 117.835 20.7902C116.95 20.7902 116.23 21.5087 116.23 22.3943C116.23 23.28 116.95 23.9985 117.835 23.9985C118.721 23.9985 119.439 23.28 119.439 22.3943C119.439 21.5087 120.157 20.7902 121.043 20.7902C121.929 20.7902 122.648 20.0716 122.648 19.186C122.648 18.3003 121.929 17.5818 121.043 17.5818C120.157 17.5818 119.439 16.8633 119.439 15.9777C119.439 15.092 120.157 14.3735 121.043 14.3735C121.929 14.3735 122.648 13.655 122.648 12.7693C122.648 11.8837 121.929 11.1652 121.043 11.1652C120.157 11.1652 119.439 10.4467 119.439 9.56103C119.439 8.67539 120.157 7.95687 121.043 7.95687C121.929 7.95687 122.648 8.67539 122.648 9.56103C122.648 10.4467 123.366 11.1652 124.251 11.1652C125.137 11.1652 125.856 11.8837 125.856 12.7693C125.856 13.655 125.137 14.3735 124.251 14.3735C123.366 14.3735 122.648 15.092 122.648 15.9777C122.648 16.8633 123.366 17.5818 124.251 17.5818C125.137 17.5818 125.856 18.3003 125.856 19.186C125.856 20.0716 125.137 20.7902 124.251 20.7902C123.366 20.7902 122.648 21.5087 122.648 22.3943C122.648 23.28 123.366 23.9985 124.251 23.9985C125.137 23.9985 125.856 23.28 125.856 22.3943C125.856 21.5087 126.574 20.7902 127.46 20.7902C128.346 20.7902 129.064 20.0716 129.064 19.186C129.064 18.3003 128.346 17.5818 127.46 17.5818C126.574 17.5818 125.856 16.8633 125.856 15.9777C125.856 15.092 126.574 14.3735 127.46 14.3735C128.346 14.3735 129.064 13.655 129.064 12.7693C129.064 11.8837 128.346 11.1652 127.46 11.1652C126.574 11.1652 125.856 10.4467 125.856 9.56103C125.856 8.67539 126.574 7.95687 127.46 7.95687C128.346 7.95687 129.064 8.67539 129.064 9.56103C129.064 10.4467 129.783 11.1652 130.669 11.1652C131.554 11.1652 132.272 11.8837 132.272 12.7693C132.272 13.655 131.554 14.3735 130.669 14.3735C129.783 14.3735 129.064 15.092 129.064 15.9777C129.064 16.8633 129.783 17.5818 130.669 17.5818C131.554 17.5818 132.272 18.3003 132.272 19.186C132.272 20.0716 131.554 20.7902 130.669 20.7902C129.783 20.7902 129.064 21.5087 129.064 22.3943C129.064 23.28 129.783 23.9985 130.669 23.9985C131.554 23.9985 132.272 23.28 132.272 22.3943C132.272 21.5087 132.991 20.7902 133.876 20.7902C134.763 20.7902 135.481 20.0716 135.481 19.186C135.481 18.3003 134.763 17.5818 133.876 17.5818C132.991 17.5818 132.272 16.8633 132.272 15.9777C132.272 15.092 132.991 14.3735 133.876 14.3735Z" fill="#122315"/>
<path d="M134.717 7.71064C135.471 7.24483 135.705 6.25629 135.239 5.50267C134.773 4.74905 133.784 4.51573 133.031 4.98154C132.277 5.44734 132.044 6.43589 132.509 7.18951C132.975 7.94313 133.964 8.17644 134.717 7.71064Z" fill="#122315"/>
</g>
<defs>
<clipPath id="clip0_9002_102274">
<rect width="136.552" height="24" fill="white"/>
</clipPath>
</defs>
</svg>